<?xml version="1.0" encoding="UTF-8" standalone="no"?>
<svg
   width="330"
   height="140"
   viewBox="0 0 329.99998 139.99998"
   version="1.1"
   id="svg2"
   sodipodi:docname="hans_logo_with_name.svg"
   inkscape:version="1.4.2 (f4327f4, 2025-05-13)"
   xmlns:inkscape="http://www.inkscape.org/namespaces/inkscape"
   xmlns:sodipodi="http://sodipodi.sourceforge.net/DTD/sodipodi-0.dtd"
   xmlns="http://www.w3.org/2000/svg"
   xmlns:svg="http://www.w3.org/2000/svg">
  <defs
     id="defs2">
    <rect
       x="190.80511"
       y="33.938725"
       width="172.36597"
       height="121.85872"
       id="rect5" />
    <rect
       x="197.75319"
       y="31.533617"
       width="156.06468"
       height="118.11745"
       id="rect4" />
    <rect
       x="206.83916"
       y="31.266382"
       width="147.78043"
       height="110.90213"
       id="rect2" />
  </defs>
  <sodipodi:namedview
     id="namedview2"
     pagecolor="#ffffff"
     bordercolor="#000000"
     borderopacity="0.25"
     inkscape:showpageshadow="2"
     inkscape:pageopacity="0.0"
     inkscape:pagecheckerboard="0"
     inkscape:deskcolor="#d1d1d1"
     inkscape:zoom="3.7420382"
     inkscape:cx="180.65021"
     inkscape:cy="96.337873"
     inkscape:window-width="2560"
     inkscape:window-height="1377"
     inkscape:window-x="-8"
     inkscape:window-y="-8"
     inkscape:window-maximized="1"
     inkscape:current-layer="svg2">
    <inkscape:page
       x="0"
       y="0"
       width="329.99997"
       height="139.99998"
       id="page8"
       margin="0"
       bleed="0" />
  </sodipodi:namedview>
  <path
     d=""
     stroke="none"
     fill="#084c94"
     fill-rule="evenodd"
     id="path1" />
  <path
     d="m 77.203551,5.1914255 c -12.483,7.9040005 -16.106,16.9190005 -17.119,42.6030005 -0.623,15.814 -0.586,16.266 1.359,16.266 1.89,0 2.035,-0.873 2.622,-15.78 0.953,-24.205 4.337,-32.792 15.682,-39.7950005 5.922,-3.655 7.735,-6.425 4.206,-6.425 -0.993,0 -4.03,1.409 -6.75,3.131 m 12.842,6.3440005 c -5.889,2.56 -16.423,14.738 -19.054,22.025 -0.595,1.65 -2.012,5.564 -3.148,8.697 -2.816,7.763 -3.944,22.803 -1.712,22.803 1.705,0 1.908,-0.671 3.562,-11.746 2.764,-18.511 14.358,-36.403 25.122,-38.767 2.01,-0.441 2.942,-1.254 2.942,-2.566 0,-2.3220001 -2.998,-2.4960001 -7.712,-0.446 m 10.688999,5.101 c -16.823999,10.985 -30.976999,32.218 -30.976999,46.473 0,4.849 3.794,2.084 4.527,-3.299 1.764,-12.954 19.061,-35.76 31.222999,-41.165 2.786,-1.238 4.25,-2.526 4.25,-3.737 0,-2.817 -2.917,-2.259 -9.023,1.728 m 5.023,18.468 c -14.524999,0.869 -18.805999,1.726 -20.026999,4.007 -1.387,2.591 -1.215,3.157 0.777,2.557 14.605999,-4.398 57.697999,-2.093 72.499999,3.879 2.063,0.832 5.662,2.28 8,3.218 2.338,0.937 5.323,2.512 6.635,3.5 3.364,2.532 5.955,2.281 6.69,-0.648 2.469,-9.838 -37.651,-18.721 -74.575,-16.513 m 7.325,28.415 c -4.306,1.873 -6.527,5.532 -6.14,10.115 0.887,10.499 24.429,11.328 26.38,0.93 1.87,-9.967 -9.035,-15.918 -20.24,-11.045 m 0.925,1.761 c -2.628,1.268 -3.088,3.346 -0.5,2.258 5.055,-2.124 6.464,-1.818 9.81,2.13 2.73,3.221 3.601,3.707 5.059,2.821 6.017,-3.66 -7.582,-10.482 -14.369,-7.209 m -85.749999,9.1 c -24.7240004,8.852 -25.5010004,9.187 -25.4970004,10.989 10e-4,0.655 11.8950004,7.153 26.4300004,14.438996 34.299,17.193998 34.66,17.636998 23.84,29.323998 -6.677,7.212 -5.941,9.343 1.342,3.889 18.905,-14.159 8.064,-28.813 -32.865,-44.420994 -6.718,-2.562 -3.26,-5.062 14.25,-10.304 1.925,-0.576 6.875,-2.045 11,-3.264 17.272,-5.103 21.117,-8.305 10.421,-8.679 -5.169,-0.18 -8.842,0.839 -28.921,8.027 m -4.75,11.369 c -7.083,1.851 7.519,4.054 35.25,5.317 11.275,0.514 23.65,1.166 27.5,1.449 15.568999,1.144 29.831999,-2.222 26.113999,-6.163 -0.108,-0.114 -4.452,0.458 -9.655,1.271 -9.709999,1.518 -19.076999,1.265 -59.010999,-1.593 -14.07,-1.007 -17.249,-1.051 -20.198,-0.281 m 51,19.396994 c -4.304,1.691 -3.864,5.464 0.5,4.289 20.685,-5.569 69.367999,4.445 85.940999,17.678 4.426,3.533 8.809,3.258 8.809,-0.553 0,-5.141 -31.547,-17.475 -52.109,-20.373 -11.6,-1.635 -39.890999,-2.318 -43.140999,-1.041"
     stroke="none"
     fill="#044c94"
     fill-rule="evenodd"
     id="path2" />
  <text
     xml:space="preserve"
     id="text2"
     style="text-align:start;writing-mode:lr-tb;direction:ltr;white-space:pre;shape-inside:url(#rect2);display:inline;fill:#000000"
     transform="translate(0,-2.9395745)" />
  <text
     xml:space="preserve"
     style="text-align:start;writing-mode:lr-tb;direction:ltr;text-anchor:start;fill:#000000"
     x="251.46722"
     y="42.222977"
     id="text3"><tspan
       sodipodi:role="line"
       id="tspan3"
       x="251.46722"
       y="42.222977" /></text>
  <text
     xml:space="preserve"
     id="text4"
     style="font-style:normal;font-variant:normal;font-weight:normal;font-stretch:normal;font-size:10.6667px;font-family:'TASA Explorer';-inkscape-font-specification:'TASA Explorer';text-align:start;writing-mode:lr-tb;direction:ltr;white-space:pre;shape-inside:url(#rect4);display:inline;fill:#000000"
     transform="translate(0,-2.9395745)" />
  <g
     id="text5"
     style="font-size:10.6667px;font-family:'TASA Explorer';-inkscape-font-specification:'TASA Explorer';white-space:pre"
     transform="translate(-5.0774468,2.9395744)"
     aria-label="WUE&#10;HANS">
    <path
       style="font-size:40px"
       d="m 199.12469,70.663591 h 5.4 l 5.08,-20.48 0.92,-4.04 h 0.08 l 0.92,4.04 5.12,20.48 h 5.6 l 6.92,-28 h -3.24 l -5.48,22.64 -0.88,4.04 h -0.08 l -0.92,-4.04 -5.72,-22.64 h -4.32 l -5.68,22.64 -0.92,4.04 h -0.08 l -0.88,-4.04 -5.48,-22.64 h -3.28 z m 53.03998,-9.76 v -18.24 h -3.2 v 18.52 c 0,3.88 -1.92,7 -6.4,7 -4.48,0 -6.4,-3.12 -6.4,-7 v -18.52 h -3.2 v 18.24 c 0,5.96 3.08,10.24 9.6,10.24 6.52,0 9.6,-4.28 9.6,-10.24 z m 19.80001,-18.24 h -14.8 v 28 h 14.8 v -2.96 h -11.6 v -10 h 10.88 v -2.88 h -10.88 v -9.2 h 11.6 z"
       id="path3" />
    <path
       style="font-size:50.6667px"
       d="m 194.09802,94.990035 v 35.466685 h 4.05334 v -16.46667 h 18.24001 v 16.46667 h 4.05334 V 94.990035 h -4.05334 V 110.24071 H 198.15136 V 94.990035 Z m 30.65334,35.466685 h 4.20533 l 3.04,-10.488 h 13.27468 l 3.14133,10.488 h 4.25601 L 241.97803,94.990035 h -6.58667 z m 8.30933,-14.23734 4.10401,-14.03467 1.368,-5.066674 h 0.10133 l 1.41867,5.066674 4.15467,14.03467 z m 31.66667,-21.229345 h -7.752 v 35.466685 h 3.952 v -28.93068 l -0.0507,-5.218671 0.0507,-0.05067 2.07733,4.813338 13.32535,29.38668 h 7.752 V 94.990035 h -3.952 v 28.930685 l 0.0507,5.21867 -0.0507,0.0507 -2.07734,-4.81334 z m 31.61607,17.986675 3.344,1.92534 c 3.29333,1.87467 5.168,3.496 5.168,6.84 0,3.29334 -2.02667,5.37067 -5.67467,5.37067 -2.28,0 -4.864,-0.81067 -8.512,-2.22933 v 4.30667 c 2.78666,0.96266 5.57333,1.672 8.36,1.672 5.928,0 9.88001,-3.29334 9.88001,-9.12001 0,-5.32 -3.09067,-8.056 -6.68801,-10.08267 l -3.344,-1.92534 c -3.192,-1.824 -5.168,-3.24266 -5.168,-6.33333 0,-3.14134 2.02666,-5.066673 5.67467,-5.066673 2.28,0 4.76267,0.76 8.30934,2.128003 v -4.306671 c -2.73601,-0.912001 -5.42134,-1.570668 -8.15734,-1.570668 -5.92801,0 -9.88001,3.242669 -9.88001,9.018669 0,4.96534 3.192,7.34667 6.68801,9.37334 z"
       id="path4" />
  </g>
</svg>
